<?xml version="1.0" encoding="utf-8"?>
<!-- Generator: Adobe Illustrator 27.1.1, SVG Export Plug-In . SVG Version: 6.00 Build 0)  -->
<svg version="1.1"
    style="display: none;"
	 id="svg1" xmlns:svg="http://www.w3.org/2000/svg" xmlns:sodipodi="http://sodipodi.sourceforge.net/DTD/sodipodi-0.dtd" xmlns:inkscape="http://www.inkscape.org/namespaces/inkscape" inkscape:export-filename="nearby.svg" inkscape:version="1.3 (0e150ed6c4, 2023-07-21)"
	 xmlns="http://www.w3.org/2000/svg" xmlns:xlink="http://www.w3.org/1999/xlink" x="0px" y="0px" viewBox="0 0 363.2 54.7"
	 style="enable-background:new 0 0 363.2 54.7;" xml:space="preserve">
<style type="text/css">
	.nearby-outer{fill:#E4002B;}
	.st1{display:none;fill:#E5E5E3;}
	.nearby-inner{fill:#E5E5E3;}
</style>
<g id="nearbyframe">
<path class="nearby-outer" d="M357,54.7H6.2c-3.5,0-6.2-2.8-6.2-6.2V6.2C0,2.8,2.8,0,6.2,0H357c3.5,0,6.2,2.8,6.2,6.2v42.2
	C363.2,51.9,360.4,54.7,357,54.7z"/>
<path id="inner" class="st1" d="M9.9,47.6c-2.6-0.6-5-2.7-5-4.4c0-0.5,0.7-6.2,1.6-12.7c2.5-18.2,1-17.1,25.1-17.1
	c24.4,0,23-1.1,20.5,17.1c-2.1,15.3-2.3,15.5-8,17.1C42.2,48,12,48.1,9.9,47.6z M60.3,30.9c-4.3-1.4-5-4-3.5-13.7
	C58,8.8,59.1,6.6,63.2,4.7c2.4-1.1,289.4-1.2,291.4-0.2c4,2.1,4.4,3.9,3,13.4c-1.3,9-2.9,11.7-7.8,13.1
	C348.2,31.5,61.8,31.4,60.3,30.9L60.3,30.9z"/>
<path class="nearby-inner" d="M353.7,31.3H60.8c-2.6,0-4.7-2.1-4.7-4.7V8.6c0-2.6,2.1-4.7,4.7-4.7h292.9c2.6,0,4.7,2.1,4.7,4.7v18.1
	C358.4,29.2,356.3,31.3,353.7,31.3z"/>
<path class="nearby-inner" d="M46.8,48H11.5c-3.6,0-6.6-2.9-6.6-6.6V20c0-3.6,2.9-6.6,6.6-6.6h35.4c3.6,0,6.6,2.9,6.6,6.6v21.4
	C53.4,45,50.5,48,46.8,48z"/>
</g>
</svg>
